<svg xmlns="http://www.w3.org/2000/svg" xmlns:xlink="http://www.w3.org/1999/xlink" width="500"
    zoomAndPan="magnify" viewBox="0 0 375 374.999991" height="500"
    preserveAspectRatio="xMidYMid meet" version="1.0">
    <defs>
        <clipPath id="ac337ad040">
            <path d="M 59 308 L 294 308 L 294 337.5 L 59 337.5 Z M 59 308 " clip-rule="nonzero" />
        </clipPath>
        <clipPath id="ea7d8cb730">
            <path d="M 289 177 L 326.4375 177 L 326.4375 236 L 289 236 Z M 289 177 "
                clip-rule="nonzero" />
        </clipPath>
    </defs>
    <path fill="#5e0404"
        d="M 68.839844 148.699219 C 68.839844 159.949219 68.839844 171.195312 68.839844 182.445312 C 68.839844 190.042969 68.839844 197.621094 68.839844 205.21875 C 68.839844 208.921875 68.351562 213.027344 69.03125 216.695312 C 70.011719 222.074219 75.015625 226.019531 80.503906 225.6875 C 86.363281 225.320312 90.632812 220.464844 90.839844 214.738281 C 90.894531 213.148438 88.429688 213.148438 88.375 214.738281 C 88.164062 220.886719 81.800781 225.183594 76.097656 222.386719 C 72.914062 220.832031 71.359375 217.671875 71.324219 214.265625 C 71.289062 210.25 71.324219 206.230469 71.324219 202.214844 C 71.324219 188.03125 71.324219 173.851562 71.324219 159.6875 C 71.324219 156.035156 71.324219 152.367188 71.324219 148.71875 C 71.304688 147.109375 68.839844 147.109375 68.839844 148.699219 Z M 68.839844 148.699219 "
        fill-opacity="1" fill-rule="nonzero" />
    <path fill="#cc0000"
        d="M 88.882812 106.417969 C 89.53125 103.046875 86.941406 99.917969 83.496094 99.917969 L 56.683594 99.917969 C 53.238281 99.917969 50.652344 103.0625 51.296875 106.453125 C 52.800781 114.414062 52.800781 127.8125 51.296875 135.777344 C 50.652344 139.164062 53.238281 142.308594 56.683594 142.308594 L 59.972656 142.308594 L 59.972656 145.75 C 59.972656 147.109375 61.074219 148.210938 62.4375 148.210938 C 63.804688 148.210938 64.90625 147.109375 64.90625 145.75 L 64.90625 142.308594 L 67.617188 142.308594 L 67.617188 145.75 C 67.617188 147.109375 68.71875 148.210938 70.082031 148.210938 C 71.445312 148.210938 72.546875 147.109375 72.546875 145.75 L 72.546875 142.308594 L 75.257812 142.308594 L 75.257812 145.75 C 75.257812 147.109375 76.359375 148.210938 77.722656 148.210938 C 79.089844 148.210938 80.191406 147.109375 80.191406 145.75 L 80.191406 142.308594 L 83.480469 142.308594 C 86.925781 142.308594 89.53125 139.183594 88.863281 135.8125 C 86.992188 125.996094 86.992188 116.195312 88.882812 106.417969 Z M 88.882812 106.417969 "
        fill-opacity="1" fill-rule="nonzero" />
    <path fill="#ffffff"
        d="M 66.339844 131.742188 L 62.703125 112.546875 L 61.949219 126.554688 L 59.429688 120.949219 L 58.730469 124.230469 L 53.710938 124.230469 L 53.710938 123.742188 L 58.328125 123.742188 L 59.257812 119.359375 L 61.566406 124.492188 L 62.421875 108.460938 L 66.320312 129.070312 L 66.320312 124.652344 L 70.378906 124.652344 L 71.636719 116.824219 L 73.824219 123.691406 L 85.960938 123.777344 L 85.960938 124.265625 L 73.457031 124.179688 L 71.796875 118.957031 L 70.800781 125.140625 L 66.828125 125.140625 L 66.828125 131.6875 Z M 66.339844 131.742188 "
        fill-opacity="1" fill-rule="nonzero" />
    <path fill="#af0404"
        d="M 87.640625 106.417969 C 88.289062 103.046875 85.699219 99.917969 82.253906 99.917969 L 79.367188 99.917969 C 82.8125 99.917969 85.417969 103.046875 84.753906 106.417969 C 82.867188 116.214844 82.867188 125.996094 84.753906 135.792969 C 85.402344 139.164062 82.8125 142.289062 79.367188 142.289062 L 82.253906 142.289062 C 85.699219 142.289062 88.304688 139.164062 87.640625 135.792969 C 85.753906 125.996094 85.753906 116.195312 87.640625 106.417969 Z M 87.640625 106.417969 "
        fill-opacity="1" fill-rule="nonzero" />
    <path fill="#5e0404"
        d="M 73.457031 95.554688 C 73.230469 99.867188 66.707031 99.902344 66.707031 95.554688 C 66.722656 91.203125 73.230469 91.238281 73.457031 95.554688 C 73.542969 97.125 76.011719 97.140625 75.921875 95.554688 C 75.75 92.390625 73.386719 89.71875 70.082031 89.71875 C 66.917969 89.71875 64.242188 92.375 64.242188 95.554688 C 64.242188 98.625 66.757812 101.246094 69.820312 101.367188 C 73.210938 101.507812 75.730469 98.820312 75.90625 95.554688 C 76.011719 93.964844 73.542969 93.980469 73.457031 95.554688 Z M 73.457031 95.554688 "
        fill-opacity="1" fill-rule="nonzero" />
    <path fill="#ffffff"
        d="M 51.839844 109.226562 L 54.726562 109.226562 C 54.585938 108.285156 54.429688 107.359375 54.238281 106.417969 C 53.589844 103.046875 56.179688 99.917969 59.625 99.917969 L 56.753906 99.917969 C 53.308594 99.917969 50.703125 103.046875 51.367188 106.417969 C 51.542969 107.34375 51.699219 108.285156 51.839844 109.226562 Z M 51.839844 109.226562 "
        fill-opacity="1" fill-rule="nonzero" />
    <path fill="#ffffff"
        d="M 54.238281 135.792969 C 55.828125 127.601562 56.074219 119.394531 55.007812 111.203125 L 52.121094 111.203125 C 53.1875 119.394531 52.941406 127.601562 51.351562 135.792969 C 50.703125 139.164062 53.292969 142.289062 56.738281 142.289062 L 59.625 142.289062 C 56.179688 142.289062 53.589844 139.164062 54.238281 135.792969 Z M 54.238281 135.792969 "
        fill-opacity="1" fill-rule="nonzero" />
    <path fill="#5e0404"
        d="M 90.125 106.417969 C 90.613281 102.714844 88.128906 99.238281 84.335938 98.75 C 82.972656 98.574219 81.554688 98.679688 80.191406 98.679688 C 74.488281 98.679688 68.769531 98.679688 63.070312 98.679688 C 58.855469 98.679688 53.363281 97.734375 50.859375 102.050781 C 48.9375 105.367188 50.6875 110.050781 50.929688 113.613281 C 51.261719 118.34375 51.28125 123.113281 50.984375 127.847656 C 50.828125 130.398438 50.492188 132.894531 50.109375 135.425781 C 49.8125 137.398438 50.144531 139.304688 51.386719 140.910156 C 53.554688 143.722656 56.789062 143.511719 59.972656 143.511719 C 59.554688 143.09375 59.152344 142.691406 58.730469 142.273438 C 58.730469 145.066406 58.398438 149.417969 62.4375 149.417969 C 66.480469 149.417969 66.148438 145.066406 66.148438 142.273438 C 65.726562 142.691406 65.324219 143.09375 64.90625 143.511719 C 65.816406 143.511719 66.707031 143.511719 67.617188 143.511719 C 67.195312 143.09375 66.792969 142.691406 66.375 142.273438 C 66.375 145.066406 66.042969 149.417969 70.082031 149.417969 C 74.121094 149.417969 73.789062 145.066406 73.789062 142.273438 C 73.371094 142.691406 72.96875 143.09375 72.546875 143.511719 C 73.457031 143.511719 74.347656 143.511719 75.257812 143.511719 C 74.839844 143.09375 74.4375 142.691406 74.015625 142.273438 C 74.015625 145.066406 73.683594 149.417969 77.722656 149.417969 C 81.765625 149.417969 81.433594 145.066406 81.433594 142.273438 C 81.011719 142.691406 80.609375 143.09375 80.191406 143.511719 C 82.132812 143.511719 84.214844 143.738281 86.050781 142.988281 C 88.8125 141.855469 90.421875 139.042969 90.140625 136.109375 C 89.703125 131.375 88.742188 126.816406 88.691406 122.03125 C 88.621094 116.894531 89.109375 111.777344 90.054688 106.730469 C 90.351562 105.175781 87.972656 104.511719 87.675781 106.085938 C 86.222656 113.855469 85.804688 121.769531 86.695312 129.628906 C 87.0625 132.824219 89.234375 138.046875 85.925781 140.28125 C 84.300781 141.382812 82.0625 141.050781 80.191406 141.050781 C 79.527344 141.050781 78.949219 141.609375 78.949219 142.289062 C 78.949219 143.285156 79.507812 146.550781 78.039062 146.917969 C 77.269531 147.109375 76.605469 145.921875 76.484375 145.433594 C 76.394531 145.085938 76.484375 144.597656 76.484375 144.246094 C 76.484375 143.601562 76.484375 142.9375 76.484375 142.289062 C 76.484375 141.625 75.921875 141.050781 75.242188 141.050781 C 74.332031 141.050781 73.441406 141.050781 72.53125 141.050781 C 71.867188 141.050781 71.289062 141.609375 71.289062 142.289062 C 71.289062 143.285156 71.847656 146.550781 70.378906 146.917969 C 69.609375 147.109375 68.945312 145.921875 68.824219 145.433594 C 68.734375 145.085938 68.824219 144.597656 68.824219 144.246094 C 68.824219 143.601562 68.824219 142.9375 68.824219 142.289062 C 68.824219 141.625 68.261719 141.050781 67.582031 141.050781 C 66.671875 141.050781 65.78125 141.050781 64.871094 141.050781 C 64.207031 141.050781 63.628906 141.609375 63.628906 142.289062 C 63.628906 143.285156 64.1875 146.550781 62.71875 146.917969 C 61.949219 147.109375 61.285156 145.921875 61.164062 145.433594 C 61.074219 145.085938 61.164062 144.597656 61.164062 144.246094 C 61.164062 143.601562 61.164062 142.9375 61.164062 142.289062 C 61.164062 141.625 60.601562 141.050781 59.921875 141.050781 C 57.402344 141.050781 54.410156 141.46875 52.925781 138.902344 C 51.945312 137.207031 52.59375 135.304688 52.835938 133.503906 C 53.082031 131.742188 53.238281 129.976562 53.363281 128.214844 C 53.625 124.214844 53.660156 120.179688 53.484375 116.179688 C 53.328125 112.703125 52.488281 109.210938 52.382812 105.769531 C 52.207031 100.25 58.3125 101.140625 61.96875 101.140625 C 66.847656 101.140625 71.742188 101.140625 76.621094 101.140625 C 80.699219 101.140625 88.429688 99.917969 87.589844 106.417969 C 87.449219 107.988281 89.914062 107.972656 90.125 106.417969 Z M 90.125 106.417969 "
        fill-opacity="1" fill-rule="nonzero" />
    <path fill="#af0b0b"
        d="M 121.535156 223.75 C 117.476562 226.613281 113.417969 229.460938 109.363281 232.324219 C 110.847656 232.515625 112.351562 232.710938 113.839844 232.902344 C 106.632812 225.96875 99.429688 219.035156 92.207031 212.117188 C 88.777344 208.816406 83.53125 214.039062 86.976562 217.339844 C 94.183594 224.273438 101.386719 231.207031 108.609375 238.125 C 109.710938 239.1875 111.757812 239.644531 113.085938 238.699219 C 117.144531 235.835938 121.203125 232.988281 125.261719 230.125 C 129.125 227.417969 125.433594 220.988281 121.535156 223.75 Z M 121.535156 223.75 "
        fill-opacity="1" fill-rule="nonzero" />
    <g clip-path="url(#ac337ad040)">
        <path fill="#5e0404"
            d="M 293.539062 323.214844 C 293.539062 323.449219 293.492188 323.683594 293.398438 323.914062 C 293.304688 324.148438 293.164062 324.382812 292.976562 324.613281 C 292.789062 324.847656 292.554688 325.078125 292.269531 325.308594 C 291.988281 325.539062 291.660156 325.769531 291.289062 326 C 290.914062 326.226562 290.492188 326.457031 290.027344 326.683594 C 289.558594 326.910156 289.046875 327.132812 288.492188 327.359375 C 287.933594 327.582031 287.332031 327.804688 286.6875 328.023438 C 286.039062 328.242188 285.351562 328.460938 284.617188 328.675781 C 283.882812 328.890625 283.105469 329.105469 282.285156 329.316406 C 281.464844 329.527344 280.601562 329.734375 279.695312 329.941406 C 278.792969 330.148438 277.847656 330.351562 276.859375 330.550781 C 275.875 330.75 274.847656 330.949219 273.78125 331.144531 C 272.714844 331.335938 271.609375 331.527344 270.46875 331.714844 C 269.324219 331.902344 268.144531 332.085938 266.925781 332.269531 C 265.710938 332.449219 264.457031 332.625 263.167969 332.796875 C 261.878906 332.972656 260.554688 333.140625 259.199219 333.304688 C 257.84375 333.46875 256.453125 333.632812 255.03125 333.789062 C 253.609375 333.945312 252.15625 334.097656 250.675781 334.246094 C 249.191406 334.394531 247.679688 334.539062 246.136719 334.675781 C 244.597656 334.816406 243.027344 334.949219 241.433594 335.082031 C 239.835938 335.210938 238.214844 335.335938 236.570312 335.453125 C 234.925781 335.574219 233.253906 335.691406 231.5625 335.800781 C 229.871094 335.910156 228.15625 336.015625 226.421875 336.113281 C 224.6875 336.214844 222.933594 336.308594 221.160156 336.398438 C 219.390625 336.488281 217.597656 336.570312 215.792969 336.652344 C 213.984375 336.730469 212.164062 336.800781 210.328125 336.871094 C 208.492188 336.9375 206.644531 337 204.78125 337.058594 C 202.921875 337.113281 201.050781 337.164062 199.167969 337.210938 C 197.285156 337.257812 195.394531 337.296875 193.496094 337.332031 C 191.597656 337.363281 189.695312 337.394531 187.785156 337.417969 C 185.875 337.4375 183.964844 337.457031 182.046875 337.46875 C 180.128906 337.480469 178.210938 337.484375 176.292969 337.484375 C 174.375 337.484375 172.457031 337.480469 170.539062 337.46875 C 168.625 337.457031 166.710938 337.4375 164.800781 337.417969 C 162.890625 337.394531 160.988281 337.363281 159.089844 337.332031 C 157.191406 337.296875 155.300781 337.257812 153.417969 337.210938 C 151.539062 337.164062 149.664062 337.113281 147.804688 337.058594 C 145.941406 337 144.09375 336.9375 142.257812 336.871094 C 140.421875 336.800781 138.601562 336.730469 136.792969 336.652344 C 134.988281 336.570312 133.199219 336.488281 131.425781 336.398438 C 129.652344 336.308594 127.898438 336.214844 126.164062 336.113281 C 124.429688 336.015625 122.714844 335.910156 121.023438 335.800781 C 119.332031 335.691406 117.660156 335.574219 116.015625 335.453125 C 114.371094 335.335938 112.75 335.210938 111.15625 335.078125 C 109.558594 334.949219 107.992188 334.816406 106.449219 334.675781 C 104.90625 334.539062 103.394531 334.394531 101.914062 334.246094 C 100.429688 334.097656 98.976562 333.945312 97.554688 333.789062 C 96.132812 333.632812 94.742188 333.46875 93.386719 333.304688 C 92.03125 333.140625 90.707031 332.972656 89.417969 332.796875 C 88.128906 332.625 86.878906 332.449219 85.660156 332.269531 C 84.441406 332.085938 83.261719 331.902344 82.121094 331.714844 C 80.976562 331.527344 79.871094 331.335938 78.804688 331.144531 C 77.738281 330.949219 76.714844 330.75 75.726562 330.550781 C 74.742188 330.351562 73.796875 330.148438 72.890625 329.941406 C 71.984375 329.734375 71.125 329.527344 70.304688 329.316406 C 69.484375 329.105469 68.707031 328.890625 67.972656 328.675781 C 67.238281 328.460938 66.546875 328.242188 65.898438 328.023438 C 65.253906 327.804688 64.652344 327.582031 64.09375 327.359375 C 63.539062 327.132812 63.027344 326.910156 62.558594 326.683594 C 62.09375 326.457031 61.671875 326.226562 61.300781 326 C 60.925781 325.769531 60.597656 325.539062 60.316406 325.308594 C 60.035156 325.078125 59.800781 324.847656 59.609375 324.613281 C 59.421875 324.382812 59.28125 324.148438 59.1875 323.914062 C 59.09375 323.683594 59.046875 323.449219 59.046875 323.214844 C 59.046875 322.980469 59.09375 322.75 59.1875 322.515625 C 59.28125 322.28125 59.421875 322.050781 59.609375 321.816406 C 59.800781 321.585938 60.035156 321.351562 60.316406 321.121094 C 60.597656 320.890625 60.925781 320.660156 61.300781 320.433594 C 61.671875 320.203125 62.09375 319.976562 62.558594 319.75 C 63.027344 319.523438 63.539062 319.296875 64.09375 319.074219 C 64.652344 318.851562 65.253906 318.628906 65.898438 318.410156 C 66.546875 318.1875 67.238281 317.96875 67.972656 317.753906 C 68.707031 317.539062 69.484375 317.324219 70.304688 317.113281 C 71.125 316.902344 71.984375 316.695312 72.890625 316.488281 C 73.796875 316.28125 74.742188 316.078125 75.726562 315.878906 C 76.714844 315.679688 77.738281 315.480469 78.804688 315.289062 C 79.871094 315.09375 80.976562 314.902344 82.121094 314.714844 C 83.261719 314.527344 84.441406 314.34375 85.660156 314.164062 C 86.878906 313.984375 88.128906 313.804688 89.417969 313.632812 C 90.707031 313.460938 92.03125 313.289062 93.386719 313.125 C 94.742188 312.960938 96.132812 312.800781 97.554688 312.644531 C 98.976562 312.484375 100.429688 312.332031 101.914062 312.183594 C 103.394531 312.039062 104.90625 311.894531 106.449219 311.753906 C 107.992188 311.617188 109.558594 311.480469 111.15625 311.351562 C 112.75 311.222656 114.371094 311.097656 116.015625 310.976562 C 117.660156 310.855469 119.332031 310.742188 121.023438 310.632812 C 122.714844 310.519531 124.429688 310.417969 126.164062 310.316406 C 127.898438 310.214844 129.652344 310.121094 131.425781 310.03125 C 133.199219 309.941406 134.988281 309.859375 136.792969 309.78125 C 138.601562 309.703125 140.421875 309.628906 142.257812 309.5625 C 144.09375 309.492188 145.941406 309.429688 147.804688 309.375 C 149.664062 309.316406 151.539062 309.265625 153.417969 309.21875 C 155.300781 309.175781 157.191406 309.136719 159.089844 309.101562 C 160.988281 309.066406 162.890625 309.039062 164.800781 309.015625 C 166.710938 308.992188 168.625 308.976562 170.539062 308.964844 C 172.457031 308.953125 174.375 308.945312 176.292969 308.945312 C 178.210938 308.945312 180.128906 308.953125 182.046875 308.964844 C 183.964844 308.976562 185.875 308.992188 187.785156 309.015625 C 189.695312 309.039062 191.597656 309.066406 193.496094 309.101562 C 195.394531 309.136719 197.285156 309.175781 199.167969 309.21875 C 201.050781 309.265625 202.921875 309.316406 204.78125 309.375 C 206.644531 309.429688 208.492188 309.492188 210.328125 309.5625 C 212.164062 309.628906 213.984375 309.703125 215.792969 309.78125 C 217.597656 309.859375 219.390625 309.941406 221.160156 310.03125 C 222.933594 310.121094 224.6875 310.214844 226.421875 310.316406 C 228.15625 310.417969 229.871094 310.519531 231.5625 310.632812 C 233.253906 310.742188 234.925781 310.855469 236.570312 310.976562 C 238.214844 311.097656 239.835938 311.222656 241.433594 311.351562 C 243.027344 311.480469 244.597656 311.617188 246.136719 311.753906 C 247.679688 311.894531 249.191406 312.035156 250.675781 312.183594 C 252.15625 312.332031 253.609375 312.484375 255.03125 312.644531 C 256.453125 312.800781 257.84375 312.960938 259.199219 313.125 C 260.554688 313.289062 261.878906 313.460938 263.167969 313.632812 C 264.457031 313.804688 265.710938 313.984375 266.925781 314.164062 C 268.144531 314.34375 269.324219 314.527344 270.46875 314.714844 C 271.609375 314.902344 272.714844 315.09375 273.78125 315.289062 C 274.847656 315.480469 275.875 315.679688 276.859375 315.878906 C 277.847656 316.078125 278.792969 316.28125 279.695312 316.488281 C 280.601562 316.695312 281.464844 316.902344 282.285156 317.113281 C 283.105469 317.324219 283.882812 317.539062 284.617188 317.753906 C 285.351562 317.96875 286.039062 318.1875 286.6875 318.410156 C 287.332031 318.628906 287.933594 318.851562 288.492188 319.074219 C 289.050781 319.296875 289.558594 319.523438 290.027344 319.75 C 290.492188 319.976562 290.914062 320.203125 291.289062 320.433594 C 291.660156 320.660156 291.988281 320.890625 292.269531 321.121094 C 292.554688 321.351562 292.789062 321.585938 292.976562 321.816406 C 293.164062 322.050781 293.304688 322.28125 293.398438 322.515625 C 293.492188 322.75 293.539062 322.980469 293.539062 323.214844 Z M 293.539062 323.214844 "
            fill-opacity="1" fill-rule="nonzero" />
    </g>
    <path fill="#930707"
        d="M 194.710938 272.652344 L 178.320312 271.324219 L 176.046875 299.21875 C 172.21875 297.175781 167.847656 296.003906 163.210938 296.003906 C 148.152344 296.003906 135.964844 308.195312 135.964844 323.214844 L 190.460938 323.214844 C 190.460938 323.214844 190.460938 323.214844 190.460938 323.199219 L 190.597656 323.214844 Z M 194.710938 272.652344 "
        fill-opacity="1" fill-rule="nonzero" />
    <path fill="#930707"
        d="M 218.144531 272.652344 L 234.53125 271.324219 L 236.804688 299.21875 C 240.636719 297.175781 245.007812 296.003906 249.644531 296.003906 C 264.699219 296.003906 276.890625 308.195312 276.890625 323.214844 L 222.394531 323.214844 C 222.394531 323.214844 222.394531 323.214844 222.394531 323.199219 L 222.253906 323.214844 Z M 218.144531 272.652344 "
        fill-opacity="1" fill-rule="nonzero" />
    <path fill="#e82d2d"
        d="M 287.820312 162.027344 C 287.050781 159.632812 285.863281 156.960938 284.339844 154.027344 C 282.609375 150.535156 280.667969 147.164062 278.5 143.949219 C 258.71875 112.425781 216.867188 78.644531 208.226562 41.585938 C 207.984375 40.5 206.621094 40.152344 205.886719 40.992188 C 196.582031 51.574219 153.488281 101.804688 130.578125 150.0625 C 127.867188 154.902344 125.59375 160 123.824219 165.34375 C 123.824219 165.34375 123.824219 165.34375 123.824219 165.363281 C 120.886719 174.21875 119.277344 183.703125 119.277344 193.550781 C 119.277344 242.316406 158.28125 281.839844 206.410156 281.839844 C 254.523438 281.839844 293.539062 242.316406 293.539062 193.550781 C 293.539062 182.445312 291.511719 171.824219 287.820312 162.027344 Z M 287.820312 162.027344 "
        fill-opacity="1" fill-rule="nonzero" />
    <path fill="#ea4444"
        d="M 275.597656 153.660156 C 274.933594 151.441406 273.933594 148.945312 272.640625 146.21875 C 271.171875 142.972656 269.511719 139.828125 267.675781 136.839844 C 250.867188 107.480469 215.292969 76.027344 207.964844 41.515625 C 207.757812 40.5 206.585938 40.167969 205.972656 40.957031 C 198.066406 50.804688 161.445312 97.578125 141.980469 142.519531 C 139.6875 147.023438 137.746094 151.773438 136.242188 156.753906 C 136.242188 156.753906 136.242188 156.753906 136.242188 156.769531 C 133.742188 165.011719 132.378906 173.851562 132.378906 183.019531 C 132.378906 188.453125 132.851562 193.761719 133.761719 198.894531 C 138.515625 195.367188 144.289062 193.289062 150.53125 193.289062 C 166.710938 193.289062 179.824219 207.210938 179.824219 224.378906 C 179.824219 235.886719 173.933594 245.929688 165.171875 251.308594 C 176.957031 260.09375 191.140625 265.230469 206.390625 265.230469 C 247.28125 265.230469 280.421875 228.429688 280.421875 183.019531 C 280.457031 172.664062 278.726562 162.777344 275.597656 153.660156 Z M 275.597656 153.660156 "
        fill-opacity="1" fill-rule="nonzero" />
    <path fill="#ffffff"
        d="M 175.992188 126.753906 C 175.308594 127.917969 174.589844 129.046875 173.832031 130.140625 C 173.070312 131.230469 172.289062 132.265625 171.480469 133.238281 C 170.671875 134.214844 169.855469 135.109375 169.027344 135.929688 C 168.203125 136.75 167.382812 137.476562 166.570312 138.109375 C 165.757812 138.742188 164.96875 139.269531 164.203125 139.691406 C 163.433594 140.113281 162.707031 140.421875 162.011719 140.617188 C 161.320312 140.8125 160.679688 140.890625 160.085938 140.851562 C 159.496094 140.8125 158.96875 140.65625 158.5 140.386719 C 158.03125 140.113281 157.636719 139.730469 157.308594 139.234375 C 156.984375 138.742188 156.738281 138.144531 156.566406 137.445312 C 156.394531 136.75 156.304688 135.960938 156.292969 135.085938 C 156.285156 134.214844 156.355469 133.265625 156.507812 132.25 C 156.65625 131.230469 156.886719 130.164062 157.191406 129.039062 C 157.5 127.917969 157.878906 126.765625 158.328125 125.585938 C 158.78125 124.402344 159.292969 123.210938 159.871094 122.015625 C 160.449219 120.816406 161.078125 119.632812 161.757812 118.46875 C 162.4375 117.300781 163.160156 116.171875 163.917969 115.078125 C 164.675781 113.988281 165.460938 112.953125 166.269531 111.980469 C 167.078125 111.007812 167.894531 110.109375 168.722656 109.289062 C 169.546875 108.46875 170.367188 107.746094 171.179688 107.113281 C 171.992188 106.480469 172.78125 105.949219 173.546875 105.527344 C 174.3125 105.105469 175.042969 104.796875 175.734375 104.601562 C 176.429688 104.40625 177.070312 104.328125 177.660156 104.367188 C 178.253906 104.40625 178.78125 104.5625 179.25 104.835938 C 179.714844 105.105469 180.113281 105.488281 180.4375 105.984375 C 180.761719 106.480469 181.011719 107.074219 181.183594 107.773438 C 181.355469 108.472656 181.445312 109.257812 181.453125 110.132812 C 181.464844 111.007812 181.394531 111.953125 181.242188 112.96875 C 181.089844 113.988281 180.863281 115.058594 180.554688 116.179688 C 180.25 117.300781 179.871094 118.453125 179.417969 119.632812 C 178.96875 120.816406 178.457031 122.007812 177.878906 123.203125 C 177.300781 124.402344 176.671875 125.585938 175.992188 126.753906 Z M 175.992188 126.753906 "
        fill-opacity="1" fill-rule="nonzero" />
    <path fill="#ffffff"
        d="M 158.875 153.90625 C 158.875 154.445312 158.820312 154.980469 158.714844 155.511719 C 158.609375 156.039062 158.453125 156.554688 158.246094 157.054688 C 158.039062 157.550781 157.785156 158.027344 157.484375 158.476562 C 157.183594 158.925781 156.84375 159.339844 156.460938 159.722656 C 156.078125 160.105469 155.664062 160.445312 155.214844 160.746094 C 154.761719 161.046875 154.289062 161.296875 153.789062 161.503906 C 153.289062 161.710938 152.773438 161.867188 152.242188 161.972656 C 151.714844 162.078125 151.175781 162.132812 150.636719 162.132812 C 150.097656 162.132812 149.558594 162.078125 149.03125 161.972656 C 148.5 161.867188 147.984375 161.710938 147.484375 161.503906 C 146.984375 161.296875 146.511719 161.046875 146.058594 160.746094 C 145.609375 160.445312 145.195312 160.105469 144.8125 159.722656 C 144.429688 159.339844 144.089844 158.925781 143.789062 158.476562 C 143.488281 158.027344 143.234375 157.550781 143.027344 157.054688 C 142.820312 156.554688 142.664062 156.039062 142.558594 155.511719 C 142.453125 154.980469 142.398438 154.445312 142.398438 153.90625 C 142.398438 153.363281 142.453125 152.828125 142.558594 152.300781 C 142.664062 151.769531 142.820312 151.257812 143.027344 150.757812 C 143.234375 150.257812 143.488281 149.785156 143.789062 149.335938 C 144.089844 148.886719 144.429688 148.46875 144.8125 148.089844 C 145.195312 147.707031 145.609375 147.367188 146.058594 147.066406 C 146.511719 146.765625 146.984375 146.511719 147.484375 146.304688 C 147.984375 146.097656 148.5 145.941406 149.03125 145.835938 C 149.558594 145.730469 150.097656 145.679688 150.636719 145.679688 C 151.175781 145.679688 151.714844 145.730469 152.242188 145.835938 C 152.773438 145.941406 153.289062 146.097656 153.789062 146.304688 C 154.289062 146.511719 154.761719 146.765625 155.214844 147.066406 C 155.664062 147.367188 156.078125 147.707031 156.460938 148.089844 C 156.84375 148.46875 157.183594 148.886719 157.484375 149.335938 C 157.785156 149.785156 158.039062 150.257812 158.246094 150.757812 C 158.453125 151.257812 158.609375 151.769531 158.714844 152.300781 C 158.820312 152.828125 158.875 153.363281 158.875 153.90625 Z M 158.875 153.90625 "
        fill-opacity="1" fill-rule="nonzero" />
    <path fill="#af0b0b"
        d="M 290.199219 161.378906 C 286.71875 151.074219 280.371094 141.660156 273.933594 132.964844 C 267.726562 124.582031 260.941406 116.652344 254.171875 108.738281 C 240.496094 92.757812 226.085938 76.671875 216.726562 57.671875 C 214.59375 53.339844 212.792969 48.832031 211.464844 44.1875 C 210.921875 42.28125 210.78125 39.804688 208.929688 38.648438 C 207.125 37.515625 205.21875 38.214844 203.855469 39.574219 C 200.199219 43.277344 196.964844 47.558594 193.660156 51.574219 C 181.503906 66.226562 169.925781 81.371094 159.101562 97.039062 C 151.824219 107.570312 144.917969 118.34375 138.585938 129.472656 C 135.367188 135.113281 132.324219 140.839844 129.476562 146.675781 C 127.972656 149.765625 126.292969 152.753906 124.894531 155.878906 C 123.597656 158.777344 122.621094 161.78125 121.429688 164.714844 C 120.816406 166.234375 122.355469 167.84375 123.808594 167.84375 C 123.019531 166.792969 122.21875 165.765625 121.429688 164.714844 C 113.820312 187.996094 115.746094 213.757812 126.957031 235.554688 C 136.539062 254.191406 152.664062 269.210938 171.992188 277.351562 C 192.15625 285.855469 215.328125 286.589844 235.949219 279.253906 C 255.730469 272.199219 272.640625 258.175781 283.308594 240.113281 C 297.335938 216.449219 299.765625 187.105469 290.199219 161.378906 C 289.097656 158.429688 284.339844 159.703125 285.441406 162.691406 C 293.609375 184.660156 292.894531 209.480469 282.765625 230.699219 C 274.164062 248.707031 259.453125 263.378906 241.316406 271.761719 C 222.640625 280.40625 200.902344 281.664062 181.277344 275.515625 C 162.25 269.542969 145.722656 256.65625 135.105469 239.816406 C 121.253906 217.882812 118.160156 190.601562 126.203125 165.992188 C 126.710938 164.453125 125.363281 162.863281 123.824219 162.863281 C 124.613281 163.914062 125.417969 164.941406 126.203125 165.992188 C 127.238281 163.457031 128.039062 160.839844 129.160156 158.324219 C 130.402344 155.546875 131.90625 152.925781 133.21875 150.203125 C 135.613281 145.226562 138.167969 140.335938 140.84375 135.496094 C 146.140625 125.925781 151.894531 116.617188 157.945312 107.5 C 168.6875 91.328125 180.316406 75.730469 192.539062 60.65625 C 196.457031 55.835938 200.429688 51.050781 204.484375 46.335938 C 205.117188 45.601562 205.746094 44.886719 206.375 44.152344 C 206.636719 43.855469 206.988281 43.539062 207.195312 43.207031 C 207.265625 43.105469 207.546875 42.910156 207.5625 42.789062 C 208 42.316406 207.492188 42.351562 206.023438 42.878906 C 206.128906 43.3125 206.234375 43.75 206.355469 44.167969 C 207.511719 48.554688 209.121094 52.816406 210.992188 56.953125 C 219.246094 75.363281 232.695312 91.117188 245.691406 106.347656 C 253 114.921875 260.46875 123.394531 267.359375 132.335938 C 274.425781 141.503906 281.734375 151.617188 285.460938 162.671875 C 286.457031 165.675781 291.214844 164.402344 290.199219 161.378906 Z M 290.199219 161.378906 "
        fill-opacity="1" fill-rule="nonzero" />
    <path fill="#f79797"
        d="M 256.945312 171.792969 C 256.851562 172.0625 256.699219 172.3125 256.488281 172.539062 C 256.277344 172.765625 256.011719 172.964844 255.695312 173.136719 C 255.375 173.308594 255.007812 173.449219 254.59375 173.558594 C 254.179688 173.671875 253.726562 173.75 253.230469 173.792969 C 252.734375 173.839844 252.210938 173.851562 251.65625 173.828125 C 251.097656 173.808594 250.523438 173.753906 249.925781 173.664062 C 249.332031 173.574219 248.726562 173.457031 248.113281 173.304688 C 247.503906 173.152344 246.894531 172.972656 246.289062 172.765625 C 245.679688 172.558594 245.089844 172.324219 244.515625 172.066406 C 243.9375 171.8125 243.386719 171.535156 242.863281 171.238281 C 242.339844 170.941406 241.851562 170.628906 241.402344 170.304688 C 240.949219 169.980469 240.542969 169.648438 240.179688 169.308594 C 239.816406 168.96875 239.507812 168.628906 239.25 168.289062 C 238.992188 167.945312 238.789062 167.609375 238.644531 167.277344 C 238.5 166.945312 238.414062 166.628906 238.386719 166.320312 C 238.359375 166.011719 238.394531 165.722656 238.488281 165.449219 C 238.582031 165.179688 238.734375 164.929688 238.945312 164.703125 C 239.152344 164.476562 239.417969 164.277344 239.738281 164.105469 C 240.054688 163.933594 240.421875 163.792969 240.835938 163.679688 C 241.25 163.570312 241.707031 163.492188 242.199219 163.449219 C 242.695312 163.402344 243.21875 163.390625 243.777344 163.414062 C 244.332031 163.433594 244.90625 163.488281 245.503906 163.578125 C 246.097656 163.664062 246.703125 163.785156 247.316406 163.9375 C 247.929688 164.085938 248.539062 164.265625 249.144531 164.476562 C 249.75 164.683594 250.339844 164.917969 250.917969 165.171875 C 251.492188 165.429688 252.042969 165.707031 252.566406 166.003906 C 253.089844 166.300781 253.578125 166.609375 254.03125 166.9375 C 254.480469 167.261719 254.886719 167.59375 255.25 167.929688 C 255.613281 168.269531 255.921875 168.613281 256.183594 168.953125 C 256.441406 169.296875 256.640625 169.632812 256.789062 169.964844 C 256.933594 170.292969 257.019531 170.613281 257.042969 170.921875 C 257.070312 171.230469 257.039062 171.519531 256.945312 171.792969 Z M 256.945312 171.792969 "
        fill-opacity="1" fill-rule="nonzero" />
    <path fill="#f79797"
        d="M 155.894531 171.78125 C 155.800781 171.507812 155.765625 171.21875 155.792969 170.910156 C 155.816406 170.605469 155.902344 170.285156 156.050781 169.953125 C 156.195312 169.621094 156.394531 169.285156 156.65625 168.945312 C 156.914062 168.601562 157.222656 168.261719 157.585938 167.921875 C 157.949219 167.582031 158.355469 167.25 158.808594 166.925781 C 159.257812 166.601562 159.746094 166.289062 160.269531 165.992188 C 160.792969 165.699219 161.34375 165.421875 161.921875 165.164062 C 162.496094 164.90625 163.085938 164.671875 163.691406 164.464844 C 164.300781 164.257812 164.910156 164.078125 165.519531 163.925781 C 166.132812 163.773438 166.738281 163.65625 167.332031 163.566406 C 167.929688 163.480469 168.503906 163.425781 169.0625 163.402344 C 169.617188 163.378906 170.140625 163.390625 170.636719 163.4375 C 171.132812 163.484375 171.585938 163.558594 172 163.671875 C 172.414062 163.78125 172.78125 163.921875 173.101562 164.09375 C 173.417969 164.265625 173.683594 164.464844 173.894531 164.691406 C 174.101562 164.917969 174.253906 165.167969 174.347656 165.441406 C 174.441406 165.710938 174.476562 166 174.449219 166.308594 C 174.425781 166.617188 174.339844 166.9375 174.191406 167.265625 C 174.046875 167.597656 173.847656 167.933594 173.585938 168.277344 C 173.328125 168.621094 173.019531 168.960938 172.65625 169.300781 C 172.292969 169.640625 171.886719 169.972656 171.433594 170.296875 C 170.984375 170.621094 170.496094 170.929688 169.972656 171.226562 C 169.449219 171.523438 168.898438 171.800781 168.320312 172.058594 C 167.746094 172.316406 167.15625 172.546875 166.550781 172.753906 C 165.945312 172.964844 165.335938 173.144531 164.722656 173.292969 C 164.109375 173.445312 163.503906 173.566406 162.910156 173.652344 C 162.3125 173.742188 161.738281 173.796875 161.183594 173.820312 C 160.625 173.839844 160.101562 173.828125 159.605469 173.785156 C 159.109375 173.738281 158.65625 173.660156 158.242188 173.550781 C 157.828125 173.4375 157.460938 173.296875 157.140625 173.125 C 156.824219 172.953125 156.558594 172.753906 156.347656 172.527344 C 156.140625 172.300781 155.988281 172.054688 155.894531 171.78125 Z M 155.894531 171.78125 "
        fill-opacity="1" fill-rule="nonzero" />
    <path fill="#5e0404"
        d="M 214.785156 181.832031 C 212.6875 190.703125 200.359375 190.933594 198.066406 182.023438 C 197.28125 178.949219 192.523438 180.261719 193.308594 183.335938 C 194.867188 189.414062 200.375 193.882812 206.757812 193.691406 C 212.949219 193.5 218.144531 189.117188 219.5625 183.125 C 220.277344 180.050781 215.519531 178.742188 214.785156 181.832031 Z M 214.785156 181.832031 "
        fill-opacity="1" fill-rule="nonzero" />
    <g clip-path="url(#ea7d8cb730)">
        <path fill="#af0b0b"
            d="M 291.6875 184.347656 C 308.511719 194.320312 318.882812 212.328125 319.003906 231.871094 C 319.039062 236.621094 326.4375 236.640625 326.402344 231.871094 C 326.261719 209.742188 314.476562 189.253906 295.410156 177.972656 C 291.300781 175.542969 287.578125 181.917969 291.6875 184.347656 Z M 291.6875 184.347656 "
            fill-opacity="1" fill-rule="nonzero" />
    </g>
    <path fill="#ffffff"
        d="M 81.433594 105.824219 C 81.414062 105.804688 81.414062 105.804688 81.398438 105.789062 C 80.925781 105.175781 80.171875 104.792969 79.351562 104.792969 C 79.125 104.792969 78.914062 104.828125 78.703125 104.878906 C 78.460938 104.933594 78.230469 105.035156 78.023438 105.175781 C 77.96875 105.210938 77.917969 105.246094 77.882812 105.265625 C 77.234375 105.71875 76.78125 106.382812 76.78125 106.382812 C 76.78125 106.382812 76.324219 105.734375 75.660156 105.28125 C 75.609375 105.246094 75.574219 105.210938 75.519531 105.195312 C 75.3125 105.070312 75.082031 104.96875 74.839844 104.914062 C 74.628906 104.863281 74.417969 104.828125 74.191406 104.84375 C 73.351562 104.84375 72.617188 105.246094 72.144531 105.859375 C 72.128906 105.875 72.128906 105.875 72.109375 105.890625 C 69.941406 108.808594 75.484375 112.878906 76.816406 113.855469 C 78.144531 112.859375 83.636719 108.722656 81.433594 105.824219 Z M 81.433594 105.824219 "
        fill-opacity="1" fill-rule="nonzero" />
    <path fill="#808285"
        d="M 118.980469 310.1875 L 99.324219 310.1875 L 99.324219 90.800781 L 108.960938 90.800781 C 112.300781 90.800781 115.046875 88.078125 115.046875 84.722656 C 115.046875 84.636719 114.976562 84.566406 114.890625 84.566406 L 113.035156 84.566406 C 112.964844 84.566406 112.914062 84.621094 112.894531 84.671875 C 112.160156 87.097656 109.90625 88.898438 107.230469 88.898438 L 99.324219 88.898438 L 99.324219 84.460938 C 99.324219 83.730469 98.730469 83.152344 98.011719 83.152344 L 97.171875 83.152344 C 96.4375 83.152344 95.859375 83.746094 95.859375 84.460938 L 95.859375 88.898438 L 67.929688 88.898438 C 65.253906 88.898438 63 87.117188 62.265625 84.671875 C 62.246094 84.601562 62.195312 84.566406 62.125 84.566406 L 60.269531 84.566406 C 60.183594 84.566406 60.113281 84.636719 60.113281 84.722656 C 60.113281 88.058594 62.839844 90.800781 66.199219 90.800781 L 95.878906 90.800781 L 95.878906 310.1875 L 76.203125 310.1875 C 72.863281 310.1875 70.117188 312.910156 70.117188 316.265625 C 70.117188 316.351562 70.1875 316.421875 70.273438 316.421875 L 72.128906 316.421875 C 72.199219 316.421875 72.25 316.367188 72.269531 316.316406 C 73.003906 313.890625 75.257812 312.089844 77.933594 312.089844 L 117.234375 312.089844 C 119.910156 312.089844 122.164062 313.871094 122.898438 316.316406 C 122.917969 316.386719 122.96875 316.421875 123.039062 316.421875 L 124.894531 316.421875 C 124.980469 316.421875 125.050781 316.351562 125.050781 316.265625 C 125.066406 312.910156 122.320312 310.1875 118.980469 310.1875 Z M 118.980469 310.1875 "
        fill-opacity="1" fill-rule="nonzero" />
    <path fill="#ffffff"
        d="M 76.957031 320.019531 C 76.957031 320.386719 76.917969 320.75 76.847656 321.109375 C 76.777344 321.46875 76.667969 321.820312 76.527344 322.15625 C 76.386719 322.496094 76.214844 322.820312 76.011719 323.125 C 75.808594 323.429688 75.574219 323.710938 75.316406 323.972656 C 75.054688 324.230469 74.773438 324.460938 74.46875 324.667969 C 74.164062 324.871094 73.839844 325.042969 73.5 325.183594 C 73.160156 325.324219 72.8125 325.429688 72.449219 325.5 C 72.089844 325.574219 71.726562 325.609375 71.359375 325.609375 C 70.992188 325.609375 70.628906 325.574219 70.265625 325.5 C 69.90625 325.429688 69.554688 325.324219 69.21875 325.183594 C 68.878906 325.042969 68.554688 324.871094 68.25 324.667969 C 67.945312 324.460938 67.660156 324.230469 67.402344 323.972656 C 67.140625 323.710938 66.910156 323.429688 66.707031 323.125 C 66.5 322.820312 66.328125 322.496094 66.1875 322.15625 C 66.046875 321.820312 65.941406 321.46875 65.871094 321.109375 C 65.796875 320.75 65.761719 320.386719 65.761719 320.019531 C 65.761719 319.652344 65.796875 319.289062 65.871094 318.929688 C 65.941406 318.570312 66.046875 318.21875 66.1875 317.878906 C 66.328125 317.542969 66.5 317.21875 66.707031 316.914062 C 66.910156 316.609375 67.140625 316.328125 67.402344 316.066406 C 67.660156 315.808594 67.945312 315.578125 68.25 315.371094 C 68.554688 315.167969 68.878906 314.996094 69.21875 314.855469 C 69.554688 314.714844 69.90625 314.609375 70.265625 314.539062 C 70.628906 314.464844 70.992188 314.429688 71.359375 314.429688 C 71.726562 314.429688 72.089844 314.464844 72.449219 314.539062 C 72.8125 314.609375 73.160156 314.714844 73.5 314.855469 C 73.839844 314.996094 74.164062 315.167969 74.46875 315.371094 C 74.773438 315.578125 75.054688 315.808594 75.316406 316.066406 C 75.574219 316.328125 75.808594 316.609375 76.011719 316.914062 C 76.214844 317.21875 76.386719 317.542969 76.527344 317.878906 C 76.667969 318.21875 76.777344 318.570312 76.847656 318.929688 C 76.917969 319.289062 76.957031 319.652344 76.957031 320.019531 Z M 76.957031 320.019531 "
        fill-opacity="1" fill-rule="nonzero" />
    <path fill="#000000"
        d="M 75.714844 320.019531 C 75.417969 325.589844 67.003906 325.644531 67.003906 320.019531 C 67.003906 314.394531 75.417969 314.449219 75.714844 320.019531 C 75.800781 321.589844 78.265625 321.609375 78.179688 320.019531 C 77.988281 316.316406 75.222656 313.207031 71.359375 313.207031 C 67.652344 313.207031 64.539062 316.316406 64.539062 320.019531 C 64.539062 323.617188 67.476562 326.65625 71.0625 326.8125 C 75.046875 326.988281 77.988281 323.828125 78.195312 320.019531 C 78.265625 318.449219 75.800781 318.449219 75.714844 320.019531 Z M 75.714844 320.019531 "
        fill-opacity="1" fill-rule="nonzero" />
    <path fill="#ffffff"
        d="M 129.945312 320.019531 C 129.945312 320.386719 129.910156 320.75 129.839844 321.109375 C 129.769531 321.46875 129.660156 321.820312 129.519531 322.15625 C 129.378906 322.496094 129.207031 322.820312 129.003906 323.125 C 128.800781 323.429688 128.566406 323.710938 128.308594 323.972656 C 128.046875 324.230469 127.765625 324.460938 127.460938 324.667969 C 127.15625 324.871094 126.832031 325.042969 126.492188 325.183594 C 126.152344 325.324219 125.804688 325.429688 125.441406 325.5 C 125.082031 325.574219 124.71875 325.609375 124.351562 325.609375 C 123.984375 325.609375 123.621094 325.574219 123.257812 325.5 C 122.898438 325.429688 122.546875 325.324219 122.207031 325.183594 C 121.871094 325.042969 121.546875 324.871094 121.242188 324.667969 C 120.9375 324.460938 120.652344 324.230469 120.394531 323.972656 C 120.132812 323.710938 119.902344 323.429688 119.699219 323.125 C 119.492188 322.820312 119.320312 322.496094 119.179688 322.15625 C 119.039062 321.820312 118.933594 321.46875 118.863281 321.109375 C 118.789062 320.75 118.753906 320.386719 118.753906 320.019531 C 118.753906 319.652344 118.789062 319.289062 118.863281 318.929688 C 118.933594 318.570312 119.039062 318.21875 119.179688 317.878906 C 119.320312 317.542969 119.492188 317.21875 119.699219 316.914062 C 119.902344 316.609375 120.132812 316.328125 120.394531 316.066406 C 120.652344 315.808594 120.9375 315.578125 121.242188 315.371094 C 121.546875 315.167969 121.871094 314.996094 122.207031 314.855469 C 122.546875 314.714844 122.898438 314.609375 123.257812 314.539062 C 123.621094 314.464844 123.984375 314.429688 124.351562 314.429688 C 124.71875 314.429688 125.082031 314.464844 125.441406 314.539062 C 125.804688 314.609375 126.152344 314.714844 126.492188 314.855469 C 126.832031 314.996094 127.15625 315.167969 127.460938 315.371094 C 127.765625 315.578125 128.046875 315.808594 128.308594 316.066406 C 128.566406 316.328125 128.800781 316.609375 129.003906 316.914062 C 129.207031 317.21875 129.378906 317.542969 129.519531 317.878906 C 129.660156 318.21875 129.769531 318.570312 129.839844 318.929688 C 129.910156 319.289062 129.945312 319.652344 129.945312 320.019531 Z M 129.945312 320.019531 "
        fill-opacity="1" fill-rule="nonzero" />
    <path fill="#000000"
        d="M 128.707031 320.019531 C 128.40625 325.589844 119.996094 325.644531 119.996094 320.019531 C 119.996094 314.394531 128.40625 314.449219 128.707031 320.019531 C 128.792969 321.589844 131.257812 321.609375 131.171875 320.019531 C 130.980469 316.316406 128.214844 313.207031 124.351562 313.207031 C 120.644531 313.207031 117.53125 316.316406 117.53125 320.019531 C 117.53125 323.617188 120.46875 326.65625 124.054688 326.8125 C 128.039062 326.988281 130.980469 323.828125 131.1875 320.019531 C 131.257812 318.449219 128.792969 318.449219 128.707031 320.019531 Z M 128.707031 320.019531 "
        fill-opacity="1" fill-rule="nonzero" />
    <path fill="#5e0404"
        d="M 189.113281 148.699219 C 189.113281 149.457031 189.039062 150.203125 188.890625 150.945312 C 188.742188 151.6875 188.523438 152.40625 188.234375 153.105469 C 187.945312 153.804688 187.589844 154.464844 187.171875 155.09375 C 186.75 155.722656 186.273438 156.304688 185.738281 156.839844 C 185.203125 157.375 184.621094 157.851562 183.992188 158.269531 C 183.363281 158.691406 182.695312 159.042969 182 159.335938 C 181.300781 159.625 180.578125 159.839844 179.835938 159.988281 C 179.09375 160.136719 178.34375 160.210938 177.585938 160.210938 C 176.832031 160.210938 176.082031 160.136719 175.339844 159.988281 C 174.597656 159.839844 173.875 159.625 173.175781 159.335938 C 172.476562 159.042969 171.8125 158.691406 171.183594 158.269531 C 170.554688 157.851562 169.972656 157.375 169.4375 156.839844 C 168.902344 156.304688 168.425781 155.722656 168.003906 155.09375 C 167.585938 154.464844 167.230469 153.804688 166.941406 153.105469 C 166.648438 152.40625 166.429688 151.6875 166.285156 150.945312 C 166.136719 150.203125 166.0625 149.457031 166.0625 148.699219 C 166.0625 147.945312 166.136719 147.195312 166.285156 146.453125 C 166.429688 145.714844 166.648438 144.992188 166.941406 144.296875 C 167.230469 143.597656 167.585938 142.933594 168.003906 142.304688 C 168.425781 141.675781 168.902344 141.097656 169.4375 140.5625 C 169.972656 140.027344 170.554688 139.550781 171.183594 139.128906 C 171.8125 138.710938 172.476562 138.355469 173.175781 138.066406 C 173.875 137.777344 174.597656 137.558594 175.339844 137.410156 C 176.082031 137.265625 176.832031 137.191406 177.585938 137.191406 C 178.34375 137.191406 179.09375 137.265625 179.835938 137.410156 C 180.578125 137.558594 181.300781 137.777344 181.996094 138.066406 C 182.695312 138.355469 183.363281 138.710938 183.992188 139.128906 C 184.621094 139.550781 185.203125 140.027344 185.738281 140.5625 C 186.273438 141.097656 186.75 141.675781 187.171875 142.304688 C 187.589844 142.933594 187.945312 143.597656 188.234375 144.296875 C 188.523438 144.992188 188.742188 145.714844 188.890625 146.453125 C 189.039062 147.195312 189.113281 147.945312 189.113281 148.699219 Z M 189.113281 148.699219 "
        fill-opacity="1" fill-rule="nonzero" />
    <path fill="#ffffff"
        d="M 180.332031 145.679688 C 180.332031 146.046875 180.296875 146.414062 180.226562 146.777344 C 180.152344 147.136719 180.046875 147.488281 179.90625 147.832031 C 179.761719 148.171875 179.589844 148.496094 179.382812 148.804688 C 179.179688 149.109375 178.945312 149.394531 178.683594 149.65625 C 178.421875 149.917969 178.136719 150.148438 177.832031 150.355469 C 177.523438 150.558594 177.199219 150.734375 176.855469 150.875 C 176.515625 151.015625 176.164062 151.121094 175.800781 151.195312 C 175.4375 151.265625 175.070312 151.304688 174.703125 151.304688 C 174.332031 151.304688 173.964844 151.265625 173.601562 151.195312 C 173.242188 151.121094 172.886719 151.015625 172.546875 150.875 C 172.207031 150.734375 171.878906 150.558594 171.574219 150.355469 C 171.265625 150.148438 170.980469 149.917969 170.71875 149.65625 C 170.457031 149.394531 170.226562 149.109375 170.019531 148.804688 C 169.8125 148.496094 169.640625 148.171875 169.5 147.832031 C 169.359375 147.488281 169.25 147.136719 169.179688 146.777344 C 169.105469 146.414062 169.070312 146.046875 169.070312 145.679688 C 169.070312 145.308594 169.105469 144.945312 169.179688 144.582031 C 169.25 144.21875 169.359375 143.867188 169.5 143.527344 C 169.640625 143.183594 169.8125 142.863281 170.019531 142.554688 C 170.226562 142.246094 170.457031 141.964844 170.71875 141.703125 C 170.980469 141.441406 171.265625 141.207031 171.574219 141.003906 C 171.878906 140.796875 172.207031 140.625 172.546875 140.484375 C 172.886719 140.339844 173.242188 140.234375 173.601562 140.164062 C 173.964844 140.089844 174.332031 140.054688 174.703125 140.054688 C 175.070312 140.054688 175.4375 140.089844 175.800781 140.164062 C 176.164062 140.234375 176.515625 140.339844 176.855469 140.484375 C 177.199219 140.625 177.523438 140.796875 177.832031 141.003906 C 178.136719 141.207031 178.421875 141.441406 178.683594 141.703125 C 178.945312 141.964844 179.179688 142.246094 179.382812 142.554688 C 179.589844 142.863281 179.761719 143.183594 179.90625 143.527344 C 180.046875 143.867188 180.152344 144.21875 180.226562 144.582031 C 180.296875 144.945312 180.332031 145.308594 180.332031 145.679688 Z M 180.332031 145.679688 "
        fill-opacity="1" fill-rule="nonzero" />
    <path fill="#ffffff"
        d="M 184.144531 153.554688 C 184.144531 153.855469 184.089844 154.140625 183.972656 154.417969 C 183.859375 154.695312 183.695312 154.9375 183.484375 155.148438 C 183.273438 155.359375 183.03125 155.523438 182.753906 155.636719 C 182.476562 155.75 182.1875 155.808594 181.890625 155.808594 C 181.589844 155.808594 181.304688 155.75 181.027344 155.636719 C 180.75 155.523438 180.507812 155.359375 180.292969 155.148438 C 180.082031 154.9375 179.921875 154.695312 179.804688 154.417969 C 179.691406 154.140625 179.632812 153.855469 179.632812 153.554688 C 179.632812 153.257812 179.691406 152.96875 179.804688 152.695312 C 179.921875 152.417969 180.082031 152.175781 180.292969 151.960938 C 180.507812 151.75 180.75 151.589844 181.027344 151.472656 C 181.304688 151.359375 181.589844 151.304688 181.890625 151.304688 C 182.1875 151.304688 182.476562 151.359375 182.753906 151.472656 C 183.03125 151.589844 183.273438 151.75 183.484375 151.960938 C 183.695312 152.175781 183.859375 152.417969 183.972656 152.695312 C 184.089844 152.96875 184.144531 153.257812 184.144531 153.554688 Z M 184.144531 153.554688 "
        fill-opacity="1" fill-rule="nonzero" />
    <path fill="#5e0404"
        d="M 246.773438 148.699219 C 246.773438 149.457031 246.699219 150.203125 246.554688 150.945312 C 246.40625 151.6875 246.1875 152.40625 245.898438 153.105469 C 245.609375 153.804688 245.253906 154.464844 244.832031 155.09375 C 244.410156 155.722656 243.933594 156.304688 243.398438 156.839844 C 242.863281 157.375 242.28125 157.851562 241.652344 158.269531 C 241.023438 158.691406 240.359375 159.042969 239.660156 159.335938 C 238.960938 159.625 238.238281 159.839844 237.496094 159.988281 C 236.753906 160.136719 236.007812 160.210938 235.25 160.210938 C 234.492188 160.210938 233.742188 160.136719 233 159.988281 C 232.257812 159.839844 231.539062 159.625 230.839844 159.335938 C 230.140625 159.042969 229.476562 158.691406 228.847656 158.269531 C 228.21875 157.851562 227.632812 157.375 227.097656 156.839844 C 226.5625 156.304688 226.085938 155.722656 225.667969 155.09375 C 225.246094 154.464844 224.890625 153.804688 224.601562 153.105469 C 224.3125 152.40625 224.09375 151.6875 223.945312 150.945312 C 223.796875 150.203125 223.722656 149.457031 223.722656 148.699219 C 223.722656 147.945312 223.796875 147.195312 223.945312 146.453125 C 224.09375 145.714844 224.3125 144.992188 224.601562 144.296875 C 224.890625 143.597656 225.246094 142.933594 225.667969 142.304688 C 226.085938 141.675781 226.5625 141.097656 227.097656 140.5625 C 227.632812 140.027344 228.21875 139.550781 228.847656 139.128906 C 229.476562 138.710938 230.140625 138.355469 230.839844 138.066406 C 231.539062 137.777344 232.257812 137.558594 233 137.410156 C 233.742188 137.265625 234.492188 137.191406 235.25 137.191406 C 236.007812 137.191406 236.753906 137.265625 237.496094 137.410156 C 238.238281 137.558594 238.960938 137.777344 239.660156 138.066406 C 240.359375 138.355469 241.023438 138.710938 241.652344 139.128906 C 242.28125 139.550781 242.863281 140.027344 243.398438 140.5625 C 243.933594 141.097656 244.410156 141.675781 244.832031 142.304688 C 245.253906 142.933594 245.609375 143.597656 245.898438 144.296875 C 246.1875 144.992188 246.40625 145.714844 246.554688 146.453125 C 246.699219 147.195312 246.773438 147.945312 246.773438 148.699219 Z M 246.773438 148.699219 "
        fill-opacity="1" fill-rule="nonzero" />
    <path fill="#ffffff"
        d="M 237.996094 145.679688 C 237.996094 146.046875 237.957031 146.414062 237.886719 146.777344 C 237.816406 147.136719 237.707031 147.488281 237.566406 147.832031 C 237.425781 148.171875 237.25 148.496094 237.046875 148.804688 C 236.839844 149.109375 236.605469 149.394531 236.34375 149.65625 C 236.085938 149.917969 235.800781 150.148438 235.492188 150.355469 C 235.183594 150.558594 234.859375 150.734375 234.519531 150.875 C 234.175781 151.015625 233.824219 151.121094 233.460938 151.195312 C 233.097656 151.265625 232.734375 151.304688 232.363281 151.304688 C 231.992188 151.304688 231.628906 151.265625 231.265625 151.195312 C 230.902344 151.121094 230.550781 151.015625 230.207031 150.875 C 229.867188 150.734375 229.542969 150.558594 229.234375 150.355469 C 228.925781 150.148438 228.644531 149.917969 228.382812 149.65625 C 228.121094 149.394531 227.886719 149.109375 227.679688 148.804688 C 227.476562 148.496094 227.300781 148.171875 227.160156 147.832031 C 227.019531 147.488281 226.914062 147.136719 226.839844 146.777344 C 226.769531 146.414062 226.730469 146.046875 226.730469 145.679688 C 226.730469 145.308594 226.769531 144.945312 226.839844 144.582031 C 226.914062 144.21875 227.019531 143.867188 227.160156 143.527344 C 227.300781 143.183594 227.476562 142.863281 227.679688 142.554688 C 227.886719 142.246094 228.121094 141.964844 228.382812 141.703125 C 228.644531 141.441406 228.925781 141.207031 229.234375 141.003906 C 229.542969 140.796875 229.867188 140.625 230.207031 140.484375 C 230.550781 140.339844 230.902344 140.234375 231.265625 140.164062 C 231.628906 140.089844 231.992188 140.054688 232.363281 140.054688 C 232.734375 140.054688 233.097656 140.089844 233.460938 140.164062 C 233.824219 140.234375 234.175781 140.339844 234.519531 140.484375 C 234.859375 140.625 235.183594 140.796875 235.492188 141.003906 C 235.800781 141.207031 236.085938 141.441406 236.34375 141.703125 C 236.605469 141.964844 236.839844 142.246094 237.046875 142.554688 C 237.25 142.863281 237.425781 143.183594 237.566406 143.527344 C 237.707031 143.867188 237.816406 144.21875 237.886719 144.582031 C 237.957031 144.945312 237.996094 145.308594 237.996094 145.679688 Z M 237.996094 145.679688 "
        fill-opacity="1" fill-rule="nonzero" />
    <path fill="#ffffff"
        d="M 241.808594 153.554688 C 241.808594 153.855469 241.75 154.140625 241.636719 154.417969 C 241.519531 154.695312 241.359375 154.9375 241.148438 155.148438 C 240.933594 155.359375 240.691406 155.523438 240.414062 155.636719 C 240.136719 155.75 239.851562 155.808594 239.550781 155.808594 C 239.253906 155.808594 238.964844 155.75 238.6875 155.636719 C 238.410156 155.523438 238.167969 155.359375 237.957031 155.148438 C 237.746094 154.9375 237.582031 154.695312 237.46875 154.417969 C 237.351562 154.140625 237.296875 153.855469 237.296875 153.554688 C 237.296875 153.257812 237.351562 152.96875 237.46875 152.695312 C 237.582031 152.417969 237.746094 152.175781 237.957031 151.960938 C 238.167969 151.75 238.410156 151.589844 238.6875 151.472656 C 238.964844 151.359375 239.253906 151.304688 239.550781 151.304688 C 239.851562 151.304688 240.136719 151.359375 240.414062 151.472656 C 240.691406 151.589844 240.933594 151.75 241.148438 151.960938 C 241.359375 152.175781 241.519531 152.417969 241.636719 152.695312 C 241.75 152.96875 241.808594 153.257812 241.808594 153.554688 Z M 241.808594 153.554688 "
        fill-opacity="1" fill-rule="nonzero" />
</svg>